<svg width="82" height="94" viewBox="0 0 82 94" fill="none" xmlns="http://www.w3.org/2000/svg">
<path fill-rule="evenodd" clip-rule="evenodd" d="M76.2498 15.9883H57.6718V6.3086C57.6718 4.6289 57.0116 3.0469 55.8202 1.8477C54.6288 0.6602 53.0507 0 51.371 0H30.629C28.9493 0 27.3673 0.66016 26.1681 1.8516C24.9767 3.043 24.3165 4.6211 24.3165 6.3125V15.9922L5.75051 15.9883C3.10211 15.9883 0.949707 18.1367 0.949707 20.7891V67.6601C0.949707 70.3085 3.09811 72.4609 5.75051 72.4609H12.0005C11.981 72.8906 11.9419 73.3124 11.9419 73.7421C11.9419 81.3007 15.1333 88.5701 20.7036 93.7031C20.9224 93.9023 21.2036 94.0039 21.4849 94.0039C21.7935 94.0039 22.106 93.8828 22.3247 93.6328C22.7544 93.164 22.7231 92.4414 22.2544 92.0117C17.1646 87.3125 14.2349 80.6527 14.2349 73.7307C14.2349 73.301 14.274 72.8791 14.2935 72.4495H20.7935C20.7622 72.8714 20.7349 73.301 20.7349 73.7307C20.731 84.9107 29.8287 94.0007 41.0009 94.0007C52.1731 94.0007 61.2709 84.9109 61.2709 73.7307C61.2709 73.301 61.2318 72.8791 61.2123 72.4495H67.7435C67.763 72.8714 67.7747 73.301 67.7747 73.7307C67.7747 79.7815 65.6264 85.5117 61.685 90.0317V87.2934C61.685 86.6645 61.1732 86.145 60.5366 86.145C59.9076 86.145 59.3882 86.6567 59.3882 87.2934V92.852C59.3882 93.4809 59.8999 94.0004 60.5366 94.0004H66.0951C66.7241 94.0004 67.2435 93.4887 67.2435 92.852C67.2435 92.2114 66.7318 91.7036 66.0951 91.7036H63.2671C67.6655 86.7348 70.0678 80.4226 70.0678 73.7346C70.0678 73.3049 70.0561 72.883 70.0366 72.4534H76.2671C78.9155 72.4534 81.0679 70.305 81.0679 67.6526L81.0601 20.7896C81.0523 18.1412 78.8999 15.9888 76.2515 15.9888L76.2498 15.9883ZM26.6208 6.3086C26.6208 5.2383 27.0427 4.2305 27.8005 3.4688C28.5622 2.70708 29.57 2.2891 30.6403 2.2891H51.3783C52.4486 2.2891 53.4564 2.71098 54.2181 3.4688C54.9798 4.23052 55.3978 5.2383 55.3978 6.3086V15.9883H51.9564L51.9603 6.8789C51.9603 6.24999 51.4486 5.7305 50.8119 5.7305H31.1989C30.57 5.7305 30.0505 6.24222 30.0505 6.8789V15.9883H26.6091V6.3086H26.6208ZM49.6478 15.9883H32.3468V8.0274H49.6478V15.9883ZM5.74981 18.2813H76.2498C77.6287 18.2813 78.7615 19.4102 78.7615 20.793V33.984C76.7029 35.3356 74.1834 36.5934 71.2303 37.734V34.734C71.2303 33.2926 70.0584 32.1246 68.6209 32.1246H64.1521C62.7107 32.1246 61.5427 33.2965 61.5427 34.734V40.6637C54.863 42.2145 47.6127 43.0856 41.0037 43.0856C34.3947 43.0856 27.1447 42.2262 20.4647 40.6637V34.734C20.4647 33.2926 19.2928 32.1246 17.8553 32.1246H13.3865C11.9451 32.1246 10.7771 33.2965 10.7771 34.734V37.734C7.82791 36.5934 5.30831 35.3356 3.24591 33.984L3.23809 20.789C3.23809 19.4101 4.37091 18.2813 5.74981 18.2813ZM68.9408 34.7303V45.8783C68.9408 47.2885 67.7924 48.4291 66.39 48.4291C64.9798 48.4291 63.8392 47.2807 63.8392 45.8783V34.7303C63.8392 34.5584 63.9798 34.41 64.1595 34.41H68.6283C68.7885 34.4217 68.9408 34.5584 68.9408 34.7303ZM18.1708 34.7303V45.8783C18.1708 47.2885 17.0302 48.4291 15.62 48.4291C14.2098 48.4291 13.0692 47.2807 13.0692 45.8783V34.7303C13.0692 34.5584 13.2098 34.41 13.3895 34.41H17.8583C18.0185 34.4217 18.1708 34.5584 18.1708 34.7303ZM40.9988 91.7103C31.0886 91.7103 23.0298 83.6517 23.0298 73.7413C23.0298 63.8311 31.0884 55.7723 40.9988 55.7723C50.9092 55.7723 58.9678 63.8309 58.9678 73.7413C58.9678 83.6397 50.9092 91.7103 40.9988 91.7103ZM76.2488 70.1593H69.8074C68.9793 63.921 65.9793 58.0813 61.2957 53.7683C60.827 53.3386 60.1043 53.3699 59.6746 53.8386C59.2449 54.3074 59.2762 55.03 59.7449 55.4597C63.9558 59.3386 66.6746 64.5691 67.4949 70.1707H60.9363C59.2449 60.6902 50.9558 53.4717 41.0063 53.4717C31.0571 53.4717 22.7683 60.6905 21.0763 70.1707H14.5255C15.1974 65.4519 17.1857 61.0613 20.3458 57.4407V60.179C20.3458 60.8079 20.8575 61.3274 21.4942 61.3274C22.1231 61.3274 22.6426 60.8157 22.6426 60.179V54.6204C22.6426 53.9915 22.1309 53.472 21.4942 53.472H15.9356C15.3067 53.472 14.7872 53.9837 14.7872 54.6204C14.7872 55.2493 15.2989 55.7688 15.9356 55.7688H18.7637C15.1543 59.8391 12.9121 64.8196 12.2129 70.1668H5.76372C4.38482 70.1668 3.25202 69.0379 3.25202 67.6551L3.25983 36.6781C5.40043 37.9398 7.92003 39.1195 10.791 40.1781V45.8773C10.791 48.5492 12.9629 50.7171 15.6308 50.7171C18.3027 50.7171 20.4706 48.5452 20.4706 45.8773V43.0062C27.1698 44.5257 34.4006 45.3656 41.0096 45.3656C47.6186 45.3656 54.8496 44.5258 61.5486 43.0062V45.8773C61.5486 48.5492 63.7205 50.7171 66.3884 50.7171C69.0603 50.7171 71.2282 48.5452 71.2282 45.8773V40.1781C74.0993 39.1195 76.6188 37.9476 78.7594 36.6781V67.6471C78.7594 69.0377 77.6266 70.1588 76.2477 70.1588L76.2488 70.1593ZM40.9988 57.9483C32.2996 57.9483 25.2098 65.0264 25.2098 73.7373C25.2098 82.4365 32.2879 89.5263 40.9988 89.5263C49.698 89.5263 56.7878 82.4482 56.7878 73.7373C56.7878 65.0303 49.698 57.9483 40.9988 57.9483ZM40.9988 87.2293C33.5574 87.2293 27.5108 81.1785 27.5108 73.7413C27.5108 66.2999 33.5577 60.2373 40.9988 60.2373C48.4399 60.2373 54.4868 66.2881 54.4868 73.7253C54.4868 81.1706 48.4399 87.2293 40.9988 87.2293ZM39.8504 62.7373V61.8467C39.8504 61.2178 40.3621 60.6983 40.9988 60.6983C41.6277 60.6983 42.1472 61.21 42.1472 61.8467V62.7373C42.1472 63.3662 41.6355 63.8857 40.9988 63.8857C40.3699 63.8896 39.8504 63.3779 39.8504 62.7373ZM31.159 73.7293C31.159 74.3582 30.6473 74.8777 30.0106 74.8777H29.12C28.4911 74.8777 27.9716 74.366 27.9716 73.7293C27.9716 73.1004 28.4833 72.5809 29.12 72.5809H30.0106C30.6395 72.5887 31.159 73.1004 31.159 73.7293ZM34.0379 65.1473C34.4871 65.5965 34.4871 66.3192 34.0379 66.7684C33.8192 66.9871 33.5184 67.1082 33.2293 67.1082C32.9403 67.1082 32.6395 66.9989 32.4207 66.7684L31.7918 66.1395C31.3426 65.6903 31.3426 64.9676 31.7918 64.5184C32.241 64.0692 32.9637 64.0692 33.4129 64.5184L34.0379 65.1473ZM50.8389 73.7293C50.8389 73.1004 51.3506 72.5809 51.9873 72.5809H52.8779C53.5068 72.5809 54.0263 73.0926 54.0263 73.7293C54.0263 74.3582 53.5146 74.8777 52.8779 74.8777H51.9873C51.3584 74.8777 50.8389 74.3699 50.8389 73.7293ZM34.0379 80.6902C34.4871 81.1394 34.4871 81.8621 34.0379 82.3113L33.409 82.9402C33.1902 83.159 32.8895 83.28 32.6004 83.28C32.3113 83.28 32.0106 83.1707 31.7918 82.9402C31.3426 82.491 31.3426 81.7683 31.7918 81.3191L32.4207 80.6902C32.8699 80.2488 33.5887 80.2488 34.0379 80.6902ZM50.2099 64.5182C50.6591 64.9674 50.6591 65.6901 50.2099 66.1393L49.581 66.7682C49.3622 66.987 49.0615 67.108 48.7724 67.108C48.4833 67.108 48.1826 66.9987 47.9638 66.7682C47.5146 66.319 47.5146 65.5963 47.9638 65.1471L48.5927 64.5182C49.038 64.069 49.7685 64.069 50.2099 64.5182ZM50.2099 81.3192C50.6591 81.7684 50.6591 82.4911 50.2099 82.9403C49.9912 83.159 49.6904 83.2801 49.4013 83.2801C49.1123 83.2801 48.8115 83.1708 48.5927 82.9403L47.9638 82.3114C47.5146 81.8622 47.5146 81.1395 47.9638 80.6903C48.413 80.2411 49.1357 80.2411 49.5849 80.6903L50.2099 81.3192ZM42.1474 84.7176V85.6082C42.1474 86.2371 41.6357 86.7566 40.999 86.7566C40.3701 86.7566 39.8506 86.2449 39.8506 85.6082V84.7176C39.8506 84.0887 40.3623 83.5692 40.999 83.5692C41.6279 83.577 42.1474 84.0887 42.1474 84.7176ZM42.8896 73.7296C42.8896 74.7687 42.038 75.6202 40.999 75.6202C40.9678 75.6202 40.9482 75.6085 40.9209 75.6085L37.3311 79.9093C37.1006 80.1788 36.7803 80.3194 36.4522 80.3194C36.1904 80.3194 35.9326 80.2296 35.7217 80.0499C35.2334 79.6398 35.1709 78.921 35.5732 78.4405L39.1514 74.1397C39.1201 74.0108 39.1006 73.8702 39.1006 73.7178C39.1006 73.1084 39.4014 72.5694 39.8506 72.2178L39.8896 65.6983C39.8896 65.0694 40.4092 64.5577 41.038 64.5577H41.0498C41.6787 64.5577 42.1904 65.0773 42.1904 65.7061L42.1513 72.2256C42.6005 72.5889 42.8896 73.128 42.8896 73.7296Z" fill="#0B74DA"/>
</svg>
