<svg width="90" height="80" viewBox="0 0 90 80" fill="none" xmlns="http://www.w3.org/2000/svg">
<path fill-rule="evenodd" clip-rule="evenodd" d="M33.844 65.2197C33.7971 66.0244 34.2073 66.7861 34.8987 67.1924C35.4573 67.6885 36.1917 67.9424 36.9339 67.8916L37.3128 67.7901C37.5315 67.5518 36.9808 66.5635 36.6565 66.3213C35.6604 66.1338 34.7073 65.7588 33.844 65.2236L33.844 65.2197ZM48.125 76.4068C48.5976 76.7232 49.1523 76.8834 49.7188 76.8638C50.0078 76.7428 50.2578 76.5474 50.4453 76.3013C50.4024 76.0748 50.2735 75.8756 50.0899 75.7388C49.8242 75.5826 49.5352 75.4732 49.2344 75.4146C48.9102 75.7935 48.5352 76.1295 48.125 76.4068ZM45.6797 75.0279C46.1172 74.8834 46.5234 74.6607 46.875 74.3678C47.375 73.9889 47.7226 73.6334 47.625 72.9694C47.5508 72.4616 47.1719 72.2701 46.5703 72.0123V72.0084C45.7148 72.8053 44.7461 73.4732 43.6992 73.9928C44.0625 74.3405 44.7734 75.0358 45.3008 75.067L45.6758 75.028L45.6797 75.0279ZM78.6797 38.5669L74.4883 40.188V40.1841C73.6641 40.5122 73.2539 41.4419 73.5664 42.2739L80.3008 59.6959C80.6289 60.5201 81.5547 60.9342 82.3867 60.6178L86.5781 59.0006C87.4023 58.6725 87.8164 57.7428 87.5039 56.9108L80.7695 39.4888C80.4414 38.6646 79.5117 38.2544 78.6797 38.5669ZM39.5237 71.6099C39.0823 71.1607 38.7034 70.6568 38.3987 70.1099C38.9026 69.942 39.4221 69.8091 39.9456 69.7076L41.5354 69.3091C42.4494 68.9771 43.4416 68.9146 44.3948 69.1216C44.8362 69.2701 45.1877 69.7037 45.0237 70.0982C44.7502 70.7545 41.5432 72.6998 40.6057 72.5396C40.3596 72.5005 39.7737 71.8404 39.5276 71.6021L39.5237 71.6099ZM59.1407 47.4419C60.543 47.1411 61.961 46.9146 63.3868 46.7661C66.3243 46.4849 69.211 45.8169 71.9727 44.7778L76.9883 57.7548C76.0078 57.8798 74.836 58.0478 74.0078 58.2392C71.4258 58.833 71.4844 59.6767 70.2305 60.7665C69.5508 61.2821 68.7969 61.6962 68 62.0009C65.832 59.4462 63.457 57.0751 60.8984 54.9071C59.4687 53.6141 58.1796 52.3133 56.7461 52.2352C55.6641 52.2782 54.6523 52.8055 54 53.6727C53.2383 54.4266 51.5586 55.9735 50.4727 56.0399C49.8281 56.0282 49.1993 55.8641 48.6329 55.5595C48.2383 55.3602 48.4688 55.4891 48.4766 55.4305C48.7618 54.4305 49.1641 53.4617 49.6758 52.5555C50.1875 51.5985 50.8633 50.743 51.6758 50.0282C52.2422 49.4736 52.9453 49.0751 53.7149 48.8759C55.043 48.4931 56.0704 48.1767 57.6133 47.79L59.1328 47.4385L59.1407 47.4419ZM15.2427 10.7619L11.2739 14.9181H15.2427V10.7619ZM19.3443 25.4609H19.3404C18.6802 25.4609 18.1412 24.9219 18.1412 24.2617C18.1412 23.5977 18.6802 23.0625 19.3404 23.0625H47.9654C48.6255 23.0625 49.1646 23.5977 49.1646 24.2617C49.1646 24.9219 48.6255 25.4609 47.9654 25.4609H19.3443ZM34.4103 62.6019C33.965 62.2191 33.4923 61.8676 32.9962 61.5511C31.8439 60.7738 30.6017 60.1449 29.297 59.6761L34.9689 46.2271L36.297 46.6959C38.1056 47.3326 38.965 47.6178 40.7579 47.1373C42.8204 46.5865 46.2931 45.0357 48.6134 44.2115L48.6173 44.2154C49.5821 43.7505 50.6642 43.5826 51.7267 43.731C52.9728 44.3443 54.1486 45.0943 55.2384 45.9576C54.797 46.0826 54.3634 46.2076 53.9572 46.3248H53.9533C52.5041 46.5904 51.1642 47.2623 50.0822 48.2623C48.5275 49.692 47.3361 51.4811 46.6134 53.4693C45.8712 55.2857 45.6485 56.731 47.5548 57.6959H47.5587C48.9845 58.5475 50.7384 58.6568 52.2579 57.9889C53.4063 57.3678 54.4571 56.5866 55.3829 55.6686C55.6837 55.3834 56.4024 54.6139 56.6329 54.6256C57.0938 54.649 58.4337 55.8951 59.3087 56.6803C60.7071 57.9498 66.586 63.0514 67.0079 65.0709H67.004C67.1173 65.9107 66.6915 66.735 65.9376 67.1295C65.1017 67.3131 62.797 65.3131 62.0392 64.6959V64.692C61.7931 64.4849 61.4767 64.3873 61.1564 64.4185C60.84 64.4459 60.547 64.6021 60.3439 64.8521C60.1408 65.1021 60.047 65.4185 60.0822 65.7388C60.1173 66.0552 60.2814 66.3482 60.5314 66.5435C61.5666 67.442 62.672 68.2505 63.84 68.9654C63.9025 69.2428 63.922 69.5279 63.9025 69.8092C63.7814 70.1725 63.547 70.485 63.2384 70.7115C62.672 71.1021 61.9181 71.1021 61.3517 70.7115C60.1212 69.9225 58.9923 68.9888 57.9884 67.9303C57.7579 67.7038 57.4454 67.5827 57.1251 67.5905C56.8009 67.5944 56.4962 67.7311 56.2775 67.9655C56.0548 68.2038 55.9415 68.5163 55.9572 68.8405C55.9689 69.1608 56.1134 69.4616 56.3556 69.6764C57.3048 70.6178 58.3165 71.4928 59.3829 72.3014L59.3985 72.3131C59.3399 72.8131 59.0313 73.2467 58.5743 73.4654C58.0978 73.6061 57.5821 73.5748 57.1212 73.3756C55.9923 72.7115 54.9493 71.9108 54.0118 70.9928C53.5118 70.5631 52.7579 70.6178 52.3243 71.1139C51.8946 71.6139 51.9493 72.3678 52.4493 72.8014C53.3985 73.6803 54.4141 74.4928 55.4845 75.2272C55.5197 75.5084 55.4806 75.7975 55.3673 76.0592C55.1759 76.3522 54.84 76.5123 54.4884 76.4811C53.8165 76.2623 53.1993 75.903 52.6798 75.4264C52.6173 75.2389 52.5392 75.0553 52.4415 74.8834C51.922 73.9889 51.0431 73.3639 50.0313 73.1568C50.0313 71.4107 49.0001 70.4341 47.4493 69.7896V69.7935C47.4298 69.3951 47.3361 69.0006 47.1681 68.6412C46.5236 67.3639 45.1954 66.5787 43.7697 66.6217C42.3947 66.6295 41.0314 66.8639 39.7306 67.3131C39.6329 66.6061 39.3673 65.9342 38.9571 65.3483C37.7813 63.6139 36.7579 64.0475 35.7579 63.5749C35.2619 63.321 34.8087 62.9929 34.4141 62.6023L34.4103 62.6019ZM19.3403 32.7929C18.6762 32.7929 18.1411 32.2539 18.1411 31.5937C18.1411 30.9297 18.6762 30.3945 19.3403 30.3945H47.9653C48.6254 30.3945 49.1645 30.9297 49.1645 31.5937C49.1645 32.2539 48.6254 32.7929 47.9653 32.7929H19.3403ZM26.8833 39.7265C26.7192 39.8789 26.5903 40.0625 26.5044 40.2695L19.2427 57.4805L19.2466 57.4766C18.9067 58.3008 19.2895 59.2422 20.106 59.5938L24.2466 61.3399C25.0669 61.6797 26.0083 61.2969 26.3638 60.4805L33.1724 44.3435C33.4849 43.5037 33.9809 42.9021 33.6255 42.0349H33.6216C33.4653 41.6404 33.1567 41.3201 32.7622 41.156L28.6216 39.4099C28.0317 39.1638 27.3521 39.289 26.8833 39.7265ZM19.3403 40.125H23.9731L17.0473 56.551C16.6332 57.5275 16.6254 58.6291 17.0277 59.6135C17.4262 60.5978 18.1996 61.383 19.18 61.7932L23.3206 63.5393C25.1722 64.3244 27.3206 63.6057 28.3323 61.8635C29.4729 62.258 30.555 62.7932 31.5628 63.4612C31.2738 64.8674 31.4535 66.3323 32.0668 67.6331C32.9847 68.9729 34.3832 69.9065 35.9691 70.2503C36.0276 70.6135 36.1487 70.9612 36.3206 71.2855H9.67262V17.3125H16.4382C17.0984 17.3125 17.6374 16.7773 17.6374 16.1133V8.97266H57.6374V44.7347L54.6999 42.6605C52.989 41.4964 51.8132 40.93 49.6569 41.4027C47.3014 41.9222 42.6881 44.1449 40.1413 44.8246C39.7312 44.9613 39.2976 45.0081 38.864 44.9652C37.8562 44.7191 36.864 44.3988 35.8952 44.016C36.3757 42.6957 36.1335 41.223 35.2468 40.1293H47.9658C48.6259 40.1293 49.165 39.5902 49.165 38.9301C49.165 38.266 48.6259 37.7309 47.9658 37.7309H30.7898L29.5476 37.2074C28.2156 36.6488 26.6882 36.848 25.5437 37.7309H19.3445C18.6804 37.7309 18.1453 38.266 18.1453 38.9301C18.1453 39.5902 18.6804 40.1293 19.3445 40.1293L19.3403 40.125ZM50.3563 6.57396L16.4383 6.57787C16.0906 6.57787 15.7586 6.72631 15.532 6.99193L7.67263 15.2263H7.66872C7.41872 15.4529 7.2781 15.7771 7.2781 16.113V65.4331H2.3992V3.12405H50.3602V6.57715L50.3563 6.57396ZM7.27828 67.832H1.20018C0.540017 67.832 0.000976562 67.2929 0.000976562 66.6328V1.92576C0.000976562 1.2617 0.540037 0.726562 1.20018 0.726562H51.5552C52.2192 0.726562 52.7544 1.26172 52.7544 1.92576V6.57806H58.8286C59.4926 6.57806 60.0317 7.11712 60.0317 7.77726V44.8283C63.8755 44.1408 65.2465 44.4415 69.6606 43.0353C70.1215 42.8907 70.6254 42.7189 71.1606 42.5353V42.5314C70.7504 40.6095 71.7973 38.6681 73.6333 37.9572L77.8247 36.3361L77.8208 36.34C79.8833 35.5431 82.2036 36.5665 83.0005 38.6291L89.731 56.0511C90.5239 58.1136 89.5005 60.4261 87.4419 61.2269L83.2505 62.848H83.2466C82.2583 63.2308 81.1568 63.2034 80.1841 62.7738C79.2153 62.3441 78.4536 61.5471 78.0708 60.5549L77.8755 60.0549H77.8794C76.3599 60.1526 74.8599 60.4573 73.4224 60.9573C72.7349 61.3557 72.4107 62.5042 70.0865 63.6721C69.774 63.8283 69.4849 63.9651 69.2076 64.0861H69.2036C69.7076 65.7267 69.2115 67.5119 67.9341 68.6564C67.481 69.0861 66.9146 69.3713 66.3013 69.4807C66.317 70.6995 65.7349 71.8479 64.7427 72.5549C63.8717 73.2814 62.7115 73.5588 61.6021 73.3088C61.2975 74.3322 60.5669 75.1721 59.5943 75.6174C59.0514 75.8713 58.4537 75.9846 57.856 75.9455C57.7623 76.8205 57.317 77.6213 56.6216 78.1682C55.9302 78.7112 55.0435 78.9534 54.1685 78.8401C53.442 78.7112 52.7505 78.4182 52.1529 77.9846C50.6802 79.6291 48.8287 79.5588 47.0357 78.5354C46.5318 78.2346 46.067 77.8635 45.6646 77.4338C43.7662 77.6096 42.4927 76.1252 41.2193 74.9065H41.2154C40.2389 75.0627 39.2466 74.7229 38.567 74.008C38.4577 73.9104 38.3405 73.801 38.2116 73.676H8.47357C7.81341 73.676 7.27437 73.137 7.27437 72.4729V67.8323L7.27828 67.832ZM46.7663 15.152H30.7663V17.6676H46.7663V15.152ZM29.5673 12.7536V12.7497C28.9032 12.7497 28.3681 13.2887 28.3681 13.9489V18.863C28.3681 19.5231 28.9032 20.0622 29.5673 20.0622H47.9653C48.6293 20.0622 49.1645 19.5231 49.1645 18.863V13.9528C49.1645 13.2887 48.6293 12.7536 47.9653 12.7536L29.5673 12.7536Z" fill="#E79251"/>
</svg>
