<svg width="75" height="85" viewBox="0 0 75 85" fill="none" xmlns="http://www.w3.org/2000/svg">
<path d="M61.7834 21.2874C61.7834 21.2488 61.7451 21.1716 61.7451 21.133C61.6683 20.9785 61.5532 20.7854 61.4382 20.6695L44.9041 4.024C44.7507 3.86951 44.5972 3.79227 44.4438 3.71503C44.4054 3.67641 44.3287 3.67641 44.2903 3.67641C44.1369 3.63779 44.0218 3.59917 43.8683 3.59917C43.83 3.59917 43.7916 3.56055 43.7532 3.56055H5.4679C2.78255 3.56055 0.634277 5.76193 0.634277 8.42675V80.0295C0.634277 82.733 2.82092 84.8957 5.4679 84.8957H57.0265C59.7119 84.8957 61.8601 82.6943 61.8601 80.0295V21.7895C61.8601 21.7509 61.8601 21.7123 61.8218 21.6737C61.8601 21.5578 61.8218 21.4419 61.7834 21.2874ZM56.3744 20.1674H46.9757C46.0933 20.1674 45.3645 19.4337 45.3645 18.5454V9.08331L50.8502 14.6061L56.3744 20.1674ZM57.0265 81.6516H5.4679C4.58557 81.6516 3.85669 80.9178 3.85669 80.0295V8.42675C3.85669 7.53848 4.58557 6.80468 5.4679 6.80468H42.1037V18.5454C42.1037 21.2488 44.2903 23.4116 46.9373 23.4116H58.5994V79.9909C58.6377 80.9178 57.9472 81.6516 57.0265 81.6516Z" fill="#867DBC"/>
<path d="M53.1134 68.0965C53.1517 67.9034 53.1517 67.7103 53.1517 67.5172C53.1517 66.5517 52.7681 65.6634 52.116 65.0069C51.3104 64.1958 50.1595 63.8483 49.047 64.0027C48.9319 63.8483 48.8168 63.6938 48.6634 63.5779C48.0112 62.8827 47.0905 62.5352 46.1699 62.5352C44.9806 62.5352 43.9449 63.1145 43.2927 64.0414C42.1802 63.8483 41.0293 64.2345 40.2237 65.0455C39.3798 65.8952 39.0729 67.0538 39.2263 68.1352C38.344 68.7917 37.7686 69.8345 37.7686 70.9931C37.7686 72.1903 38.344 73.2331 39.2647 73.8896C39.0729 74.971 39.4181 76.1296 40.2621 76.9793C41.0677 77.7903 42.2569 78.1765 43.3311 77.9834C43.9832 78.8717 45.019 79.4896 46.2082 79.4896C47.3974 79.4896 48.4332 78.9103 49.0854 77.9834C50.1979 78.1765 51.3487 77.7903 52.1543 76.9793C52.9983 76.1296 53.3052 74.971 53.1517 73.8896C53.3052 73.7738 53.4586 73.6579 53.5737 73.5034C54.2642 72.8469 54.6095 71.92 54.6095 70.9931C54.5711 69.7958 53.9957 68.7531 53.1134 68.0965ZM51.272 71.1862C51.2336 71.2248 51.1569 71.2634 51.0418 71.2634H50.8117C50.1595 71.2634 49.5841 71.6496 49.3155 72.2676C49.047 72.8855 49.2005 73.5807 49.6608 74.0441L49.8526 74.2372C49.9677 74.3531 49.9677 74.5462 49.8526 74.662C49.7375 74.8165 49.6224 74.8552 49.3539 74.5848L49.1621 74.4303C48.7017 74.0055 48.0112 73.8896 47.4358 74.16C46.8604 74.4303 46.4767 75.0096 46.4767 75.6662V75.8979C46.4767 76.2455 45.863 76.2455 45.863 75.8979V75.6276C45.863 74.971 45.4793 74.3917 44.8655 74.1214C44.6737 74.0441 44.4436 74.0055 44.2517 74.0055C43.8298 74.0055 43.4078 74.16 43.1009 74.4689L42.9091 74.662C42.794 74.7779 42.6789 74.8552 42.4871 74.662C42.372 74.5462 42.372 74.3531 42.4871 74.2372L42.6789 74.0441C43.1392 73.5807 43.2927 72.8855 43.0242 72.2676C42.7556 71.6496 42.1802 71.2634 41.528 71.2634H41.2979C41.1444 71.2634 40.991 71.1089 40.991 70.9545C40.991 70.8 41.1444 70.6455 41.2979 70.6455H41.528C42.1802 70.6455 42.7556 70.2593 43.0242 69.68C43.2927 69.1007 43.1776 68.4055 42.7173 67.9421L42.4871 67.7103C42.372 67.5945 42.372 67.4014 42.4871 67.3241C42.6405 67.1696 42.794 67.1696 42.9474 67.3241L43.1392 67.5172C43.5996 67.9807 44.2901 68.1352 44.9039 67.8648C45.5177 67.5945 45.9013 67.0152 45.9013 66.3586V66.0883C45.9013 65.8565 46.1315 65.5862 46.4384 65.8952C46.4767 65.9338 46.5151 66.011 46.5151 66.0883V66.3586C46.5151 67.0152 46.8987 67.5945 47.5125 67.8648C48.1263 68.1352 48.8168 67.9807 49.2772 67.5172L49.469 67.3241C49.6224 67.1696 49.7375 67.1696 49.891 67.3241C49.9677 67.4014 49.9677 67.44 49.9677 67.5558C49.9677 67.5945 49.9677 67.6717 49.8142 67.8262L49.6224 68.0193C49.2005 68.4827 49.0854 69.1779 49.3539 69.7572C49.6224 70.3365 50.1979 70.7227 50.85 70.7227H51.0802C51.2336 70.7227 51.3871 70.8386 51.3871 71.0317C51.3487 71.0317 51.3487 71.1089 51.272 71.1862Z" fill="#867DBC"/>
<path d="M74.3661 70.9155L74.251 11.9031C74.251 10.7059 73.6756 9.70175 72.8316 9.00657V4.91278C72.8316 2.59554 70.9519 0.703125 68.6502 0.703125C66.3485 0.703125 64.4687 2.59554 64.4687 4.91278V9.00657C63.6247 9.70175 63.0493 10.7445 63.0493 11.9031L63.1644 70.9155C63.1644 71.0314 63.2028 71.1473 63.2411 71.2631C63.2411 71.3017 63.2411 71.379 63.2411 71.4176L67.2308 83.7376C67.461 84.3942 68.0747 84.8576 68.7653 84.8576C69.4558 84.8576 70.0696 84.3942 70.2997 83.7376L74.2894 71.4176C74.2894 71.379 74.2894 71.3017 74.2894 71.2631C74.3278 71.1473 74.3661 71.0314 74.3661 70.9155ZM66.3868 69.3321L66.3101 19.8976H71.067L71.1437 69.3321H68.8804H66.3868ZM70.5683 11.4783C70.7985 11.4783 71.0286 11.6714 71.0286 11.9417V16.6148H66.2717V11.9417C66.2717 11.6714 66.4635 11.4783 66.7321 11.4783H70.5683ZM68.6118 3.94726C69.1489 3.94726 69.5709 4.37209 69.5709 4.91278V8.23416H67.6528V4.91278C67.6911 4.41071 68.1131 3.94726 68.6118 3.94726ZM68.7653 78.0217L67.0006 72.5762H68.8036H70.5299L68.7653 78.0217Z" fill="#867DBC"/>
<path d="M10.5702 51.9531H51.9245C52.8068 51.9531 53.5357 51.2193 53.5357 50.3311C53.5357 49.4428 52.8068 48.709 51.9245 48.709H10.5702C9.68786 48.709 8.95898 49.4428 8.95898 50.3311C8.95898 51.2193 9.68786 51.9531 10.5702 51.9531Z" fill="#867DBC"/>
<path d="M53.5357 57.3213C53.5357 56.433 52.8068 55.6992 51.9245 55.6992H10.5702C9.68786 55.6992 8.95898 56.433 8.95898 57.3213C8.95898 58.2096 9.68786 58.9434 10.5702 58.9434H51.9245C52.8068 58.9434 53.5357 58.2096 53.5357 57.3213Z" fill="#867DBC"/>
<path d="M10.5702 38.0098H51.9245C52.8068 38.0098 53.5357 37.276 53.5357 36.3877C53.5357 35.4994 52.8068 34.7656 51.9245 34.7656H10.5702C9.68786 34.7656 8.95898 35.4994 8.95898 36.3877C8.95898 37.276 9.68786 38.0098 10.5702 38.0098Z" fill="#867DBC"/>
<path d="M10.5702 45.0019H51.9245C52.8068 45.0019 53.5357 44.2682 53.5357 43.3799C53.5357 42.4916 52.8068 41.7578 51.9245 41.7578H10.5702C9.68786 41.7578 8.95898 42.4916 8.95898 43.3799C8.95898 44.2682 9.68786 45.0019 10.5702 45.0019Z" fill="#867DBC"/>
<path d="M14.6366 31.0195H47.8965C48.7788 31.0195 49.5077 30.2857 49.5077 29.3975C49.5077 28.5092 48.7788 27.7754 47.8965 27.7754H14.6366C13.7543 27.7754 13.0254 28.5092 13.0254 29.3975C13.0254 30.2857 13.7159 31.0195 14.6366 31.0195Z" fill="#867DBC"/>
</svg>
